<?xml version="1.0" encoding="UTF-8"?>
<svg id="Layer_2" data-name="Layer 2" xmlns="http://www.w3.org/2000/svg" viewBox="0 0 365.92 365.92">
  <defs>
    <style>
      .cls-1 {
        stroke: #fff;
        stroke-miterlimit: 10;
        stroke-width: 2px;
      }
    </style>
  </defs>
  <g id="Layer_1-2" data-name="Layer 1">
    <g>
      <path class="cls-1" d="M364.92,182.96c0,100.49-81.47,181.96-181.96,181.96-7.7,0-15.29-.48-22.74-1.42v-45.96c7.4,1.24,14.99,1.89,22.74,1.89,75.37,0,136.47-61.1,136.47-136.47S258.33,46.49,182.96,46.49,46.49,107.59,46.49,182.96c0,56.55,34.4,105.06,83.4,125.77v48.32C55.28,334.34,1,264.98,1,182.96,1,82.47,82.47,1,182.96,1s181.96,81.47,181.96,181.96Z"/>
      <path class="cls-1" d="M273.94,182.96c0,50.25-40.73,90.98-90.98,90.98-7.85,0-15.47-.99-22.74-2.86v-40.15c6.89,3.27,14.6,5.1,22.74,5.1,29.31,0,53.07-23.76,53.07-53.07v-73.9c22.96,16.51,37.91,43.46,37.91,73.9Z"/>
      <path class="cls-1" d="M205.7,94.84v40.15c-6.89-3.27-14.6-5.1-22.74-5.1s-15.85,1.84-22.74,5.1c-17.93,8.53-30.33,26.8-30.33,47.97v73.9c-22.96-16.51-37.91-43.46-37.91-73.9,0-50.25,40.73-90.98,90.98-90.98,7.85,0,15.47.99,22.74,2.86Z"/>
      <circle class="cls-1" cx="182.96" cy="182.96" r="22.74"/>
      <path class="cls-1" d="M319.43,182.96c0,75.37-61.1,136.47-136.47,136.47-7.75,0-15.35-.65-22.74-1.89v-46.47c7.27,1.87,14.89,2.86,22.74,2.86,50.25,0,90.98-40.73,90.98-90.98,0-30.44-14.94-57.39-37.91-73.9-9.01-6.49-19.27-11.36-30.33-14.21-7.27-1.87-14.89-2.86-22.74-2.86-50.25,0-90.98,40.73-90.98,90.98,0,30.44,14.94,57.39,37.91,73.9v51.87c-49-20.71-83.4-69.22-83.4-125.77,0-75.37,61.1-136.47,136.47-136.47s136.47,61.1,136.47,136.47Z"/>
    </g>
  </g>
</svg>